# xmcd
#
# Track frame offsets:
#	150
#	13948
#	26779
#	40452
#	56615
#	68698
#	85915
#	98789
#	114578
#	127514
#	142109
#	159152
#
# Disc length: 2298 seconds
#
# Revision: 1
# Processed by: cddbd v1.5.2PL0 Copyright (c) Steve Scherf et al.
# Submitted via: audiograbber 1.83.01
#
DISCID=9a08f80c
DTITLE=David Church - Custom Made
DYEAR=2000
DGENRE=Country
TTITLE0=You've Got the Key
TTITLE1=In a Moment of Weakenss
TTITLE2=Blue Side of Town
TTITLE3=I Still Need and Still Want You
TTITLE4=All the Good Ones Are Gone
TTITLE5=Custom Made
TTITLE6=Keep on Lovin' You
TTITLE7=I Can't Face One More Day
TTITLE8=You're On
TTITLE9=I Wonder (Do You Ever Think of Me)
TTITLE10=Like the Wind and Like the Sun
TTITLE11=Heartache Comin'
EXTD=
EXTT0=
EXTT1=
EXTT2=
EXTT3=
EXTT4=
EXTT5=
EXTT6=
EXTT7=
EXTT8=
EXTT9=
EXTT10=
EXTT11=
PLAYORDER=
